<svg width="70" height="70" viewBox="0 0 70 70" fill="none" xmlns="http://www.w3.org/2000/svg">
<path d="M49.3184 34.9213L46.123 27.341C45.7703 26.5042 46.6255 25.6684 47.454 26.0402L66.0375 34.3807C66.8351 34.7386 66.8217 35.8757 66.0159 36.2147L47.478 44.0147C46.641 44.3669 45.8057 43.5111 46.1781 42.6829L49.309 35.7198C49.4229 35.4665 49.4263 35.1772 49.3184 34.9213Z" stroke="white" stroke-width="2" stroke-linecap="round"/>
<g opacity="0.9">
<path fill-rule="evenodd" clip-rule="evenodd" d="M52.8985 48.0002C52.2383 48.8936 51.5036 49.7491 50.6944 50.5583C41.9076 59.3451 27.6614 59.3451 18.8746 50.5583C10.0878 41.7715 10.0878 27.5253 18.8746 18.7385C27.6614 9.95174 41.9076 9.95174 50.6944 18.7385C52.29 20.3342 53.5959 22.1099 54.612 24.0002L56.8569 24.0002C55.6928 21.5874 54.11 19.3258 52.1086 17.3243C42.5407 7.75648 27.0282 7.75648 17.4603 17.3243C7.8925 26.8922 7.8925 42.4047 17.4603 51.9726C27.0282 61.5404 42.5407 61.5404 52.1086 51.9726C53.3423 50.7388 54.417 49.4062 55.3326 48.0002H52.8985Z" fill="white"/>
</g>
<rect x="1.13623" y="29" width="25" height="13" rx="6.5" fill="#EF3F54"/>
</svg>
