<svg width="53" height="56" viewBox="0 0 53 56" fill="none" xmlns="http://www.w3.org/2000/svg">
<path d="M39.2307 29.6553V26.0303C39.2324 22.5736 38.014 19.6261 35.5757 17.1878C33.1374 14.7494 30.189 13.5303 26.7307 13.5303C23.274 13.5286 20.3265 14.7469 17.8882 17.1853C15.4499 19.6236 14.2307 22.5719 14.2307 26.0303C14.229 29.4869 15.4474 32.4344 17.8857 34.8728C20.324 37.3111 23.2724 38.5303 26.7307 38.5303C28.479 38.5319 30.114 38.2094 31.6357 37.5628C33.1574 36.9161 34.4807 36.0303 35.6057 34.9053C36.439 35.9886 37.5016 36.8636 38.7932 37.5303C40.0849 38.1969 41.4807 38.5303 42.9807 38.5303C45.4407 38.5319 47.5141 37.6678 49.2007 35.9378C50.8874 34.2078 51.7307 32.1136 51.7307 29.6553V26.0303C51.7291 22.5736 51.0724 19.3344 49.7607 16.3128C48.4491 13.2911 46.6574 10.6453 44.3857 8.37527C42.1174 6.10527 39.4724 4.31361 36.4507 3.00027C33.429 1.68694 30.189 1.03027 26.7307 1.03027C23.3107 1.03194 20.0807 1.68861 17.0407 3.00027C14.0007 4.31194 11.3457 6.10361 9.07572 8.37527C6.80572 10.6436 5.01405 13.2886 3.70072 16.3103C2.38738 19.3319 1.73072 22.5719 1.73072 26.0303C1.72905 29.4469 2.38488 32.6761 3.69822 35.7178C5.01155 38.7594 6.80322 41.4153 9.07322 43.6853C11.3449 45.9553 14.0015 47.7469 17.0432 49.0603C20.0849 50.3736 23.314 51.0303 26.7307 51.0303H36.7307" stroke="white" stroke-width="2"/>
<rect x="23" y="44" width="23" height="12" rx="6" fill="#EF3F54"/>
</svg>
