<svg width="69" height="70" viewBox="0 0 69 70" fill="none" xmlns="http://www.w3.org/2000/svg">
<rect x="41" y="29" width="13" height="13" rx="6.5" transform="rotate(90 41 29)" fill="#EF3F54"/>
<path fill-rule="evenodd" clip-rule="evenodd" d="M37.1509 48.5709H39.5122C44.6887 39.8262 44.1031 28.616 37.7551 20.4292H35.1549C42.2138 28.3473 42.8791 39.9569 37.1509 48.5709ZM32.7179 20.4292C26.1428 28.5939 25.936 40.1903 32.0975 48.5709H29.6661C24.1034 40.0144 24.2856 28.8124 30.2127 20.4292H32.7179Z" fill="#D9D9D9"/>
<path opacity="0.9" d="M2.59401 33.8202C20.2842 16.13 48.9658 16.13 66.656 33.8202C67.1695 34.3337 67.1695 35.1663 66.656 35.6798C48.9658 53.37 20.2842 53.37 2.59401 35.6798C2.0805 35.1663 2.0805 34.3337 2.59401 33.8202Z" stroke="white" stroke-width="2"/>
</svg>
