<svg width="57" height="58" viewBox="0 0 57 58" fill="none" xmlns="http://www.w3.org/2000/svg">
<g opacity="0.9">
<path fill-rule="evenodd" clip-rule="evenodd" d="M32.5961 45.4994C30.0839 46.4686 27.354 47 24.5 47C12.0736 47 2 36.9264 2 24.5C2 12.0736 12.0736 2 24.5 2C36.9264 2 47 12.0736 47 24.5C47 27.354 46.4686 30.0839 45.4994 32.5961C46.0694 33.0459 46.5847 33.5617 47.034 34.1321C48.2994 31.1755 49 27.9196 49 24.5C49 10.969 38.031 0 24.5 0C10.969 0 0 10.969 0 24.5C0 38.031 10.969 49 24.5 49C27.9196 49 31.1755 48.2994 34.1321 47.034C33.5617 46.5847 33.0459 46.0694 32.5961 45.4994Z" fill="white"/>
<path d="M39 26L46.7273 33L56 26" stroke="white" stroke-width="2" stroke-linecap="round"/>
</g>
<rect x="22" y="33" width="13" height="25" rx="6.5" fill="#EF3F54"/>
</svg>
