<svg width="54" height="48" viewBox="0 0 54 48" fill="none" xmlns="http://www.w3.org/2000/svg">
<g opacity="0.9">
<mask id="path-1-inside-1_501_160" fill="white">
<path d="M26.6301 32.6401C24.8829 32.6401 23.1749 32.1333 21.7221 31.1839C20.2694 30.2346 19.1371 28.8852 18.4684 27.3064C17.7998 25.7276 17.6248 23.9904 17.9657 22.3144C18.3066 20.6384 19.148 19.0989 20.3834 17.8906C21.6189 16.6822 23.193 15.8593 24.9067 15.526C26.6203 15.1926 28.3966 15.3637 30.0108 16.0176C31.6251 16.6716 33.0048 17.779 33.9755 19.1998C34.9462 20.6207 35.4643 22.2912 35.4643 24C35.4643 26.2915 34.5336 28.4891 32.8769 30.1094C31.2201 31.7298 28.9731 32.6401 26.6301 32.6401ZM52.6419 19.2C52.613 19.0636 52.5542 18.935 52.4694 18.8231C52.3847 18.7112 52.2761 18.6187 52.1511 18.552L44.5709 14.3279C44.494 14.1967 44.4122 14.0671 44.3255 13.9391L44.323 5.56787C44.322 5.43029 44.2903 5.29458 44.2301 5.17023C44.1699 5.04587 44.0827 4.93585 43.9746 4.84786C41.4145 2.72829 38.4657 1.10423 35.2852 0.062225C35.1554 0.0190599 35.0179 0.00295214 34.8813 0.0149396C34.7448 0.026927 34.6124 0.0667435 34.4926 0.131825L26.8755 4.28866H26.3848L18.7775 0.122225C18.6579 0.05675 18.5256 0.0165153 18.389 0.00411428C18.2525 -0.00828674 18.1149 0.00742072 17.9849 0.0502247C14.8057 1.09845 11.8587 2.72728 9.30045 4.85026C9.1935 4.93911 9.10728 5.04936 9.04759 5.17356C8.98791 5.29776 8.95614 5.43304 8.95444 5.57027L8.91518 13.9463L8.66978 14.3351L1.08466 18.552C0.964269 18.6213 0.8604 18.715 0.779995 18.8267C0.699589 18.9385 0.644501 19.0657 0.618416 19.2C-0.0245388 22.3691 -0.0245388 25.6309 0.618416 28.8C0.645895 28.9353 0.702861 29.0632 0.785435 29.1751C0.86801 29.2869 0.974255 29.38 1.09693 29.448L8.67714 33.6721C8.75403 33.8049 8.83583 33.9345 8.92254 34.0609L8.95198 42.4297C8.95301 42.5673 8.98473 42.703 9.04491 42.8274C9.1051 42.9517 9.1923 43.0617 9.30045 43.1497C11.8605 45.2693 14.8093 46.8934 17.9898 47.9354C18.1196 47.9785 18.2572 47.9946 18.3937 47.9827C18.5302 47.9707 18.6626 47.9309 18.7825 47.8658L26.3848 43.7113H26.8755L34.4827 47.8778C34.6024 47.9432 34.7347 47.9835 34.8713 47.9959C35.0078 48.0083 35.1454 47.9926 35.2754 47.9498C38.4546 46.9015 41.4016 45.2727 43.9599 43.1497C44.0668 43.0609 44.153 42.9506 44.2127 42.8264C44.2724 42.7022 44.3042 42.567 44.3059 42.4297L44.3451 34.0537L44.5905 33.6649L52.1756 29.448C52.3009 29.381 52.4097 29.2882 52.4944 29.1758C52.5792 29.0635 52.6379 28.9344 52.6664 28.7976C53.301 25.6277 53.2926 22.3667 52.6419 19.2Z"/>
</mask>
<path d="M35.4643 24H37.4643H35.4643ZM52.6419 19.2L54.601 18.7974L54.5985 18.7859L52.6419 19.2ZM52.1511 18.552L51.1776 20.299L51.1932 20.3077L51.209 20.3161L52.1511 18.552ZM44.5709 14.3279L42.8454 15.3392L43.121 15.8096L43.5973 16.075L44.5709 14.3279ZM44.3255 13.9391L42.3255 13.9397L42.3257 14.553L42.6696 15.0608L44.3255 13.9391ZM44.323 5.56787L46.323 5.56728L46.323 5.56009L46.323 5.55291L44.323 5.56787ZM43.9746 4.84786L42.6991 6.38838L42.7057 6.39381L42.7123 6.39918L43.9746 4.84786ZM35.2852 0.062225L34.6539 1.96L34.6625 1.96282L35.2852 0.062225ZM34.4926 0.131825L33.538 -1.62568L33.5345 -1.62376L34.4926 0.131825ZM26.8755 4.28866V6.28866H27.3858L27.8336 6.04424L26.8755 4.28866ZM26.3848 4.28866L25.424 6.04279L25.8729 6.28866H26.3848V4.28866ZM18.7775 0.122225L19.7383 -1.63191L19.7377 -1.63225L18.7775 0.122225ZM17.9849 0.0502247L17.3591 -1.84935L17.3587 -1.8492L17.9849 0.0502247ZM9.30045 4.85026L8.02324 3.31119L8.02235 3.31193L9.30045 4.85026ZM8.95444 5.57027L6.95459 5.54546L6.9545 5.55318L6.95446 5.56089L8.95444 5.57027ZM8.91518 13.9463L10.6065 15.0138L10.9125 14.529L10.9152 13.9557L8.91518 13.9463ZM8.66978 14.3351L9.64157 16.0832L10.0883 15.8348L10.3611 15.4026L8.66978 14.3351ZM1.08466 18.552L0.112871 16.8039L0.0996425 16.8113L0.0865271 16.8188L1.08466 18.552ZM0.618416 19.2L2.57848 19.5976L2.58012 19.5895L2.5817 19.5815L0.618416 19.2ZM0.618416 28.8L-1.34165 29.1977L-1.34156 29.1981L0.618416 28.8ZM1.09693 29.448L2.07047 27.701L2.06707 27.6991L1.09693 29.448ZM8.67714 33.6721L10.408 32.6699L10.1319 32.1932L9.65068 31.925L8.67714 33.6721ZM8.92254 34.0609L10.9225 34.0538L10.9204 33.4377L10.5718 32.9295L8.92254 34.0609ZM8.95198 42.4297L6.95198 42.4368L6.95204 42.4447L8.95198 42.4297ZM9.30045 43.1497L10.5759 41.6092L10.5693 41.6038L10.5627 41.5984L9.30045 43.1497ZM17.9898 47.9354L18.6211 46.0376L18.6125 46.0348L17.9898 47.9354ZM18.7825 47.8658L19.737 49.6233L19.7415 49.6208L18.7825 47.8658ZM26.3848 43.7113V41.7113H25.8739L25.4257 41.9563L26.3848 43.7113ZM26.8755 43.7113L27.8363 41.9572L27.3874 41.7113H26.8755V43.7113ZM34.4827 47.8778L33.522 49.6319L33.5226 49.6323L34.4827 47.8778ZM35.2754 47.9498L35.9011 49.8493L35.9016 49.8492L35.2754 47.9498ZM43.9599 43.1497L45.2371 44.6888L45.2379 44.6881L43.9599 43.1497ZM44.3059 42.4297L46.3057 42.4545L46.3058 42.4468L46.3058 42.4391L44.3059 42.4297ZM44.3451 34.0537L42.6538 32.9862L42.3478 33.471L42.3451 34.0443L44.3451 34.0537ZM44.5905 33.6649L43.6187 31.9168L43.172 32.1652L42.8992 32.5974L44.5905 33.6649ZM52.1756 29.448L51.2323 27.6845L51.218 27.6921L51.2038 27.7L52.1756 29.448ZM52.6664 28.7976L54.6243 29.206L54.6259 29.1981L54.6275 29.1902L52.6664 28.7976ZM26.6301 30.6401C25.2687 30.6401 23.9414 30.245 22.8162 29.5097L20.628 32.8582C22.4085 34.0216 24.4971 34.6401 26.6301 34.6401V30.6401ZM22.8162 29.5097C21.6916 28.7748 20.8218 27.7348 20.3101 26.5264L16.6268 28.0864C17.4523 30.0356 18.8472 31.6944 20.628 32.8582L22.8162 29.5097ZM20.3101 26.5264C19.7985 25.3186 19.6654 23.9922 19.9256 22.713L16.0058 21.9158C15.5843 23.9886 15.8011 26.1367 16.6268 28.0864L20.3101 26.5264ZM19.9256 22.713C20.1858 21.4335 20.8293 20.252 21.7819 19.3204L18.985 16.4607C17.4666 17.9458 16.4274 19.8433 16.0058 21.9158L19.9256 22.713ZM21.7819 19.3204C22.7349 18.3883 23.9545 17.7487 25.2886 17.4891L24.5248 13.5628C22.4316 13.97 20.503 14.9761 18.985 16.4607L21.7819 19.3204ZM25.2886 17.4891C26.623 17.2296 28.0056 17.3632 29.2599 17.8713L30.7618 14.164C28.7876 13.3642 26.6177 13.1556 24.5248 13.5628L25.2886 17.4891ZM29.2599 17.8713C30.5138 18.3793 31.5784 19.2366 32.3241 20.3281L35.6269 18.0716C34.4312 16.3214 32.7363 14.9639 30.7618 14.164L29.2599 17.8713ZM32.3241 20.3281C33.0694 21.419 33.4643 22.6967 33.4643 24H37.4643C37.4643 21.8856 36.823 19.8224 35.6269 18.0716L32.3241 20.3281ZM33.4643 24C33.4643 25.7465 32.7553 27.4308 31.4784 28.6796L34.2753 31.5393C36.3118 29.5475 37.4643 26.8364 37.4643 24H33.4643ZM31.4784 28.6796C30.2 29.9299 28.4568 30.6401 26.6301 30.6401V34.6401C29.4894 34.6401 32.2402 33.5296 34.2753 31.5393L31.4784 28.6796ZM54.5985 18.7859C54.5083 18.3595 54.3249 17.9604 54.0638 17.6156L50.8751 20.0306C50.7835 19.9097 50.7177 19.7677 50.6852 19.614L54.5985 18.7859ZM54.0638 17.6156C53.8028 17.271 53.4709 16.9894 53.0932 16.7878L51.209 20.3161C51.0813 20.248 50.9666 20.1515 50.8751 20.0306L54.0638 17.6156ZM53.1246 16.8049L45.5444 12.5809L43.5973 16.075L51.1776 20.299L53.1246 16.8049ZM46.2964 13.3167C46.1971 13.1473 46.0921 12.9809 45.9813 12.8175L42.6696 15.0608C42.7323 15.1533 42.7908 15.2461 42.8454 15.3392L46.2964 13.3167ZM46.3255 13.9385L46.323 5.56728L42.323 5.56845L42.3255 13.9397L46.3255 13.9385ZM46.323 5.55291C46.3197 5.11732 46.2192 4.68924 46.0304 4.29896L42.4299 6.04149C42.3613 5.89992 42.3243 5.74325 42.3231 5.58282L46.323 5.55291ZM46.0304 4.29896C45.8415 3.90882 45.5698 3.5674 45.2369 3.29654L42.7123 6.39918C42.5957 6.30431 42.4983 6.18292 42.4299 6.04149L46.0304 4.29896ZM45.25 3.30734C42.4955 1.02675 39.3249 -0.718879 35.9079 -1.83837L34.6625 1.96282C37.6065 2.92733 40.3335 4.42983 42.6991 6.38838L45.25 3.30734ZM35.9165 -1.83553C35.5267 -1.96519 35.1147 -2.01325 34.7064 -1.97739L35.0563 2.00727C34.921 2.01915 34.7841 2.00331 34.6539 1.95998L35.9165 -1.83553ZM34.7064 -1.97739C34.2981 -1.94154 33.9001 -1.82235 33.538 -1.62568L35.4471 1.88933C35.3247 1.95583 35.1916 1.99539 35.0563 2.00727L34.7064 -1.97739ZM33.5345 -1.62376L25.9175 2.53307L27.8336 6.04424L35.4506 1.88741L33.5345 -1.62376ZM26.8755 2.28866H26.3848V6.28866H26.8755V2.28866ZM27.3455 2.53452L19.7383 -1.63191L17.8168 1.87636L25.424 6.04279L27.3455 2.53452ZM19.7377 -1.63225C19.3761 -1.83013 18.9783 -1.95059 18.57 -1.98768L18.2081 1.99591C18.0728 1.98362 17.9397 1.94363 17.8174 1.87671L19.7377 -1.63225ZM18.57 -1.98768C18.1616 -2.02478 17.7494 -1.97791 17.3591 -1.84935L18.6107 1.9498C18.4803 1.99276 18.3434 2.0082 18.2081 1.99591L18.57 -1.98768ZM17.3587 -1.8492C13.9435 -0.723189 10.7754 1.0273 8.02324 3.31119L10.5777 6.38933C12.942 4.42727 15.6678 2.92009 18.6112 1.94965L17.3587 -1.8492ZM8.02235 3.31193C7.69634 3.58278 7.4303 3.92156 7.24494 4.30728L10.8502 6.03984C10.7843 6.17715 10.6907 6.29544 10.5785 6.38859L8.02235 3.31193ZM7.24494 4.30728C7.05951 4.69314 6.95993 5.11549 6.95459 5.54546L10.9543 5.59507C10.9524 5.75058 10.9163 5.90238 10.8502 6.03984L7.24494 4.30728ZM6.95446 5.56089L6.9152 13.937L10.9152 13.9557L10.9544 5.57964L6.95446 5.56089ZM7.22387 12.8789L6.97848 13.2677L10.3611 15.4026L10.6065 15.0138L7.22387 12.8789ZM7.69799 12.5871L0.112871 16.8039L2.05645 20.3L9.64157 16.0832L7.69799 12.5871ZM0.0865271 16.8188C-0.277756 17.0286 -0.595555 17.3141 -0.843448 17.6586L2.40344 19.9948C2.31636 20.1158 2.2063 20.214 2.0828 20.2851L0.0865271 16.8188ZM-0.843448 17.6586C-1.09145 18.0033 -1.26327 18.3986 -1.34486 18.8185L2.5817 19.5815C2.55228 19.7329 2.49063 19.8736 2.40344 19.9948L-0.843448 17.6586ZM-1.34165 18.8023C-2.03785 22.2339 -2.03785 25.7661 -1.34165 29.1977L2.57848 28.4024C1.98877 25.4957 1.98877 22.5043 2.57848 19.5976L-1.34165 18.8023ZM-1.34156 29.1981C-1.25563 29.6212 -1.07802 30.0184 -0.823442 30.3631L2.39431 27.987C2.48374 28.1081 2.54742 28.2494 2.5784 28.4019L-1.34156 29.1981ZM-0.823442 30.3631C-0.568982 30.7077 -0.244128 30.9912 0.126798 31.197L2.06707 27.6991C2.19264 27.7687 2.305 27.866 2.39431 27.987L-0.823442 30.3631ZM0.123393 31.1951L7.7036 35.4191L9.65068 31.925L2.07047 27.701L0.123393 31.1951ZM6.94632 34.6742C7.04871 34.851 7.15771 35.0237 7.27327 35.1922L10.5718 32.9295C10.514 32.8452 10.4594 32.7587 10.408 32.6699L6.94632 34.6742ZM6.92255 34.0679L6.952 42.4368L10.952 42.4227L10.9225 34.0538L6.92255 34.0679ZM6.95204 42.4447C6.9553 42.8803 7.05578 43.3084 7.24466 43.6986L10.8452 41.9561C10.9137 42.0977 10.9507 42.2543 10.9519 42.4148L6.95204 42.4447ZM7.24466 43.6986C7.43348 44.0888 7.70528 44.4302 8.03815 44.7011L10.5627 41.5984C10.6793 41.6933 10.7767 41.8147 10.8452 41.9561L7.24466 43.6986ZM8.02499 44.6903C10.7795 46.9708 13.9501 48.7165 17.3672 49.836L18.6125 46.0348C15.6686 45.0703 12.9415 43.5678 10.5759 41.6092L8.02499 44.6903ZM17.3586 49.8331C17.7483 49.9628 18.1603 50.0108 18.5686 49.975L18.2187 45.9903C18.354 45.9784 18.4909 45.9943 18.6211 46.0376L17.3586 49.8331ZM18.5686 49.975C18.9769 49.9391 19.3749 49.8199 19.737 49.6233L17.8279 46.1083C17.9503 46.0418 18.0834 46.0022 18.2187 45.9903L18.5686 49.975ZM19.7415 49.6208L27.3438 45.4664L25.4257 41.9563L17.8234 46.1107L19.7415 49.6208ZM26.3848 45.7113H26.8755V41.7113H26.3848V45.7113ZM25.9148 45.4655L33.522 49.6319L35.4435 46.1236L27.8363 41.9572L25.9148 45.4655ZM33.5226 49.6323C33.8842 49.8301 34.282 49.9506 34.6903 49.9877L35.0522 46.0041C35.1875 46.0164 35.3206 46.0564 35.4428 46.1233L33.5226 49.6323ZM34.6903 49.9877C35.0987 50.0248 35.5109 49.9779 35.9011 49.8493L34.6496 46.0502C34.7799 46.0073 34.9169 45.9918 35.0522 46.0041L34.6903 49.9877ZM35.9016 49.8492C39.3168 48.7232 42.4849 46.9727 45.2371 44.6888L42.6826 41.6107C40.3183 43.5727 37.5925 45.0799 34.6491 46.0503L35.9016 49.8492ZM45.2379 44.6881C45.5639 44.4172 45.83 44.0784 46.0154 43.6927L42.41 41.9602C42.476 41.8228 42.5696 41.7045 42.6818 41.6114L45.2379 44.6881ZM46.0154 43.6927C46.2008 43.3069 46.3004 42.8845 46.3057 42.4545L42.306 42.4049C42.3079 42.2494 42.344 42.0976 42.41 41.9602L46.0154 43.6927ZM46.3058 42.4391L46.3451 34.063L42.3451 34.0443L42.3059 42.4204L46.3058 42.4391ZM46.0364 35.1211L46.2818 34.7323L42.8992 32.5974L42.6538 32.9862L46.0364 35.1211ZM45.5623 35.4129L53.1474 31.1961L51.2038 27.7L43.6187 31.9168L45.5623 35.4129ZM53.1189 31.2116C53.4974 31.0092 53.8298 30.7265 54.0909 30.3805L50.898 27.9711C50.9895 27.8498 51.1044 27.7529 51.2323 27.6845L53.1189 31.2116ZM54.0909 30.3805C54.3521 30.0344 54.5351 29.6337 54.6243 29.206L50.7085 28.3893C50.7407 28.2351 50.8063 28.0926 50.898 27.9711L54.0909 30.3805ZM54.6275 29.1902C55.3146 25.7577 55.3056 22.2264 54.6009 18.7974L50.6828 19.6025C51.2797 22.5071 51.2873 25.4977 50.7053 28.4051L54.6275 29.1902Z" fill="white" mask="url(#path-1-inside-1_501_160)"/>
</g>
<rect x="39.1362" y="34" width="14" height="14" rx="4" fill="#EF3F54"/>
</svg>
