<svg width="55" height="58" viewBox="0 0 55 58" fill="none" xmlns="http://www.w3.org/2000/svg">
<path d="M43 16.6665L9.41667 28.2915L21.0417 32.1665M43 16.6665L21.0417 32.1665M43 16.6665L32.6667 43.7915L21.0417 32.1665" stroke="white" stroke-width="2" stroke-linecap="round" stroke-linejoin="round"/>
<path d="M27.5 52.8332C41.7678 52.8332 53.3333 41.2676 53.3333 26.9998C53.3333 12.7321 41.7678 1.1665 27.5 1.1665C13.2323 1.1665 1.66667 12.7321 1.66667 26.9998C1.66667 41.2676 13.2323 52.8332 27.5 52.8332Z" stroke="white" stroke-width="2" stroke-linecap="round" stroke-linejoin="round"/>
<path d="M42.2679 41C43.0377 39.6667 44.9623 39.6667 45.7321 41L51.7942 51.5C52.564 52.8333 51.6018 54.5 50.0622 54.5H37.9378C36.3982 54.5 35.436 52.8333 36.2058 51.5L42.2679 41Z" fill="#EF3F54"/>
</svg>
